<svg xmlns="http://www.w3.org/2000/svg" width="59" height="107" viewBox="0 0 59 107" fill="none">
  <g clip-path="url(#clip0_136_20209)">
    <path d="M12.3529 81.2131L11.3218 81.2544C11.8455 81.5244 12.3529 81.2131 12.3529 81.2131Z" fill="white"/>
    <path d="M7.21537 49.2418C-0.784157 50.7872 0.357352 64.4105 0 76.9568L1.25913 81.654L11.3216 81.2511C10.6119 80.8854 9.8731 79.4538 10.3229 74.7389C11.1037 66.5423 10.8757 63.268 10.8757 63.268L19.996 44.609C19.996 44.609 10.2607 48.6539 7.21537 49.2418Z" fill="white"/>
    <path d="M9.6123 76.0454L10.7168 75.8102L10.4962 63.1178L9.6123 76.0454Z" fill="#E6E6E7"/>
    <path d="M14.228 101.701L14.1899 107H29.0637L29.2659 101.304L14.228 101.701Z" fill="#343444"/>
    <path d="M31.0352 101.701L31.2228 107H46.1078L46.0731 102.099L31.0352 101.701Z" fill="#343444"/>
    <path d="M49.2174 81.2313L48.8589 81.2131C48.8589 81.2131 49.0583 81.5421 49.2174 81.2313Z" fill="#F0F1F1"/>
    <path d="M51.7848 49.2416C48.74 48.6538 39.0024 44.6074 39.0024 44.6074L48.125 63.2714C48.125 63.2714 48.3395 66.5456 49.1209 74.7423C49.5622 79.3619 49.4228 80.8298 49.2172 81.2313L57.7416 81.6559L59.0001 76.9567C58.6439 64.4103 59.7826 50.7871 51.7848 49.2416Z" fill="#F0F1F1"/>
    <path d="M23.3644 46.9971L10.0483 51.4989L10.0332 94.7856L48.9173 94.7982L48.9347 51.511L36.3669 45.4421L23.3644 46.9971Z" fill="#D34A4A"/>
    <path d="M28.151 52.2655L26.1133 78.0104L29.8156 83.8396L33.6423 78.2679L31.1717 52.2665L28.151 52.2655Z" fill="#3D3D77"/>
    <path d="M29.6194 46.3811C29.6194 46.3811 26.6004 46.4365 25.8667 47.654C24.2424 50.3444 28.1525 52.65 28.1525 52.65H31.1715C31.1715 52.65 34.4067 50.5605 33.4921 48.5386C32.7527 46.909 29.6194 46.3811 29.6194 46.3811Z" fill="#262260"/>
    <path d="M19.4448 45.3907L24.1139 51.1911L29.7873 46.166L20.3007 40.6023L19.4448 45.3907Z" fill="#EA5E5E"/>
    <path d="M29.4473 46.1644L35.1195 51.1946L39.3657 45.7811L38.9389 40.6083L29.4473 46.1644Z" fill="#EA5E5E"/>
    <path d="M20.2984 45.0074L10.6532 48.9234L8.76284 59.3973C8.76284 59.3973 8.05822 89.2713 7.82129 106.999H30.1345L30.7646 79.8053L20.2984 45.0074Z" fill="white"/>
    <path d="M17.4363 45.0059L14.9214 54.3143L18.9872 57.9013L18.6164 60.7187L30.763 79.8059L19.7596 43.0187L17.4363 45.0059Z" fill="#F0F1F1"/>
    <path d="M12.0757 94.1539L20.721 94.1559V93.1318L12.0757 93.1283V94.1539Z" fill="#D0D2D3"/>
    <path d="M48.4942 48.9334L38.8496 45.0134L28.3604 79.8058L28.3766 107H51.2964C51.0673 89.2688 50.3756 59.4094 50.3756 59.4094L48.4942 48.9334Z" fill="#F0F1F1"/>
    <path d="M41.7129 45.0145L39.3918 43.0253L28.3604 79.8058L41.8014 60.7247L40.1518 57.9074L44.2194 54.3233L41.7129 45.0145Z" fill="white"/>
    <path d="M30.8436 83.5212C30.6747 83.5209 30.5094 83.5657 30.3688 83.6498C30.2281 83.734 30.1183 83.8538 30.0534 83.9941C29.9885 84.1344 29.9712 84.2888 30.0039 84.4379C30.0366 84.587 30.1177 84.724 30.237 84.8317C30.3563 84.9393 30.5084 85.0127 30.674 85.0426C30.8397 85.0724 31.0115 85.0574 31.1677 84.9995C31.3239 84.9416 31.4575 84.8433 31.5515 84.717C31.6456 84.5908 31.6959 84.4423 31.6961 84.2904C31.6961 84.0868 31.6064 83.8915 31.4466 83.7474C31.2868 83.6032 31.07 83.5218 30.8436 83.5212Z" fill="#D0D2D3"/>
    <path d="M30.8406 91.5915C30.6715 91.5915 30.5062 91.6366 30.3656 91.7211C30.225 91.8056 30.1155 91.9257 30.0508 92.0662C29.9861 92.2068 29.9693 92.3614 30.0023 92.5105C30.0354 92.6596 30.1169 92.7966 30.2366 92.9041C30.3562 93.0115 30.5086 93.0847 30.6745 93.1142C30.8404 93.1438 31.0123 93.1284 31.1684 93.0701C31.3246 93.0117 31.458 92.913 31.5518 92.7865C31.6456 92.66 31.6955 92.5112 31.6953 92.3592C31.695 92.1555 31.6048 91.9602 31.4446 91.8163C31.2843 91.6723 31.0671 91.5915 30.8406 91.5915Z" fill="#D0D2D3"/>
    <path d="M30.896 100.165C30.727 100.165 30.5617 100.209 30.4209 100.293C30.2802 100.377 30.1703 100.497 30.1053 100.638C30.0403 100.778 30.023 100.932 30.0556 101.081C30.0882 101.23 30.1693 101.368 30.2885 101.475C30.4078 101.583 30.5599 101.656 30.7256 101.686C30.8912 101.716 31.0631 101.701 31.2193 101.643C31.3755 101.585 31.5091 101.487 31.6032 101.361C31.6973 101.235 31.7477 101.086 31.7479 100.934C31.7472 100.731 31.6573 100.536 31.4978 100.392C31.3382 100.248 31.122 100.166 30.896 100.165Z" fill="#D0D2D3"/>
    <path d="M38.1396 94.1615L46.7839 94.1656L46.785 93.138L38.1396 93.1375V94.1615Z" fill="#D0D2D3"/>
    <path d="M19.5356 80.4208L50.7154 85.79V83.4033L19.9776 77.8347L19.5356 80.4208Z" fill="#D0D2D3"/>
    <path d="M32.9526 72.327L33.2097 75.1645L48.7809 76.9869L48.7058 74.4738L32.9526 72.327Z" fill="#D0D2D3"/>
    <path d="M47.8418 75.8102L48.9475 76.0454L48.0636 63.1178L47.8418 75.8102Z" fill="#D0D2D3"/>
    <path d="M14.4116 69.7282C14.0072 70.5397 15.4848 71.3835 15.4848 71.3835C15.4848 71.3835 11.9381 70.5176 10.6633 70.8631C9.3885 71.2087 8.67716 72.6262 8.50184 73.6301C8.32653 74.634 9.44563 76.4837 11.3915 77.1058C13.3373 77.7279 19.2795 78.5052 19.8424 77.8856C20.4053 77.266 21.3603 72.3537 21.3603 72.3537L16.6145 69.4713C16.6145 69.4713 14.8182 68.9157 14.4116 69.7282Z" fill="#FFBA7F"/>
    <path d="M50.7612 76.2137L21.0842 70.9382L19.4453 79.37C19.4453 79.37 46.8813 84.1842 53.2509 85.1296C59.6205 86.0751 58.8055 75.6032 58.8055 75.6032L50.7612 76.2137Z" fill="#F0F1F1"/>
    <path d="M8.28369 83.4033V85.79L39.4651 80.4208L39.0221 77.8347L8.28369 83.4033Z" fill="#D0D2D3"/>
    <path d="M41.4701 71.1492C38.0041 70.9402 35.981 71.9728 35.981 71.9728C35.981 71.9728 36.9365 76.8872 37.5 77.5052C38.0635 78.1233 40.6691 75.6047 42.6172 74.9796C44.5652 74.3544 46.4528 74.6048 47.652 74.4758C48.7739 74.3544 44.6453 71.3396 41.4701 71.1492Z" fill="#FFBA7F"/>
    <path d="M8.23944 75.4183L0.196226 75.6032C0.196226 75.6032 -0.621538 86.0752 5.7503 85.1297C12.1221 84.1842 39.5548 79.3701 39.5548 79.3701L37.9164 70.1428L8.23944 75.4183Z" fill="white"/>
    <path d="M14.9351 76.2409C13.8653 76.386 12.5266 76.3482 12.0623 75.9563C11.7576 75.7584 11.4204 74.9287 11.2692 73.7903C10.9286 71.5235 11.0401 68.0811 11.0054 65.371L10.1221 65.3801C10.1579 68.0705 10.0392 71.516 10.3909 73.8931C10.5858 75.0899 10.8273 76.0269 11.4904 76.5628C12.4426 77.2449 13.8989 77.1497 15.0522 77.0273C15.6188 76.9583 16.18 76.8573 16.7325 76.725L16.4967 75.9599C15.9831 76.0824 15.4616 76.1762 14.9351 76.2409Z" fill="#BBBDBF"/>
    <path d="M15.9284 75.6656C15.3308 75.781 14.9174 76.1623 15.0003 76.5219C15.0832 76.8816 15.6366 77.076 16.2354 76.9647C16.8341 76.8534 17.2469 76.4665 17.1629 76.1084C17.0789 75.7502 16.5261 75.5513 15.9284 75.6656Z" fill="#57585A"/>
    <path d="M23.6986 63.7485L22.8428 63.95C23.6034 66.5724 24.7135 69.8657 25.0519 72.134C25.2339 73.2649 25.1538 74.1459 24.9197 74.4103C24.5875 74.8959 23.3054 75.2521 22.2311 75.3639C21.7041 75.4257 21.1735 75.4602 20.6421 75.4672V76.2615C21.2135 76.2565 21.784 76.22 22.3504 76.1522C23.4987 75.9971 24.9326 75.7452 25.6551 74.8612C26.1368 74.1897 26.0981 73.2296 25.9352 72.0287C25.5716 69.6481 24.4509 66.3527 23.6986 63.7485Z" fill="#BBBDBF"/>
    <path d="M21.1055 75.0426C20.495 75.0738 20.0189 75.3952 20.0413 75.7619C20.0637 76.1286 20.5779 76.3976 21.1878 76.3664C21.7978 76.3351 22.2722 76.0138 22.2521 75.6475C22.2319 75.2813 21.7143 75.0108 21.1055 75.0426Z" fill="#57585A"/>
    <path d="M15.7813 56.9366C11.8258 57.4459 9.41174 61.4827 10.0536 65.8435L11.1979 65.705C10.9028 63.7213 11.3144 61.8575 12.1938 60.4612C13.0732 59.0649 14.3923 58.1516 15.9342 57.9657C17.4762 57.7798 19.0109 58.3496 20.2718 59.489C21.5326 60.6284 22.4724 62.331 22.7665 64.3112L23.9119 64.1741C23.2549 59.8164 19.7464 56.4918 15.7813 56.9366Z" fill="#57585A"/>
    <path d="M16.9157 43.3734C15.8515 44.6206 14.9257 46.2199 14.5706 47.9115C14.4367 48.5798 14.3717 49.2578 14.3762 49.9369C14.379 52.6228 15.1962 57.7215 15.2046 57.7477L16.3114 57.4566C16.3114 57.454 16.2828 56.8944 16.0733 55.9958C15.8639 55.0971 15.483 51.1857 15.4841 49.9385C15.4789 49.3206 15.5372 48.7036 15.6583 48.0953C15.968 46.6048 16.8149 45.1233 17.7929 43.9819C18.7585 42.8384 19.9006 42.0536 20.5582 41.9222L20.2899 40.9575C19.1708 41.2225 17.9934 42.1287 16.9157 43.3734Z" fill="#57585A"/>
    <path d="M42.3153 43.3733C41.2354 42.1281 40.0575 41.2224 38.944 40.9554L38.6763 41.9206C39.3322 42.0531 40.4748 42.8379 41.4393 43.9798C42.4178 45.1192 43.2658 46.6027 43.5756 48.0932C43.6954 48.6781 43.7481 49.4372 43.7481 50.2658C43.7481 53.602 42.9018 58.0177 42.9023 58.0257L43.9929 58.197C43.9929 58.1839 44.8521 53.738 44.8549 50.2673C44.8549 49.3999 44.8022 48.5934 44.6622 47.9124C44.3048 46.2194 43.384 44.6206 42.3153 43.3733Z" fill="#57585A"/>
    <path d="M42.2801 57.7476C41.4928 57.7475 40.7231 57.9573 40.0684 58.3506C39.4138 58.7439 38.9035 59.303 38.6021 59.9571C38.3007 60.6112 38.2217 61.331 38.3752 62.0255C38.5287 62.7199 38.9077 63.3579 39.4644 63.8586C40.021 64.3594 40.7302 64.7004 41.5024 64.8386C42.2746 64.9769 43.075 64.9061 43.8024 64.6352C44.5298 64.3643 45.1516 63.9056 45.5891 63.3169C46.0266 62.7282 46.2602 62.0361 46.2603 61.328C46.2603 60.8579 46.1574 60.3924 45.9575 59.958C45.7575 59.5236 45.4643 59.1289 45.0947 58.7965C44.7251 58.464 44.2864 58.2002 43.8034 58.0203C43.3205 57.8403 42.8029 57.7476 42.2801 57.7476Z" fill="#929597"/>
    <path d="M42.2802 59.6044C41.9009 59.6042 41.5301 59.7051 41.2147 59.8945C40.8992 60.0839 40.6533 60.3531 40.508 60.6682C40.3628 60.9833 40.3247 61.33 40.3986 61.6646C40.4725 61.9991 40.655 62.3065 40.9232 62.5477C41.1913 62.7889 41.533 62.9532 41.905 63.0197C42.277 63.0863 42.6625 63.0521 43.0129 62.9216C43.3633 62.791 43.6628 62.5699 43.8734 62.2863C44.0841 62.0027 44.1965 61.6692 44.1963 61.3281C44.196 60.8711 43.9941 60.4329 43.6348 60.1097C43.2756 59.7865 42.7884 59.6048 42.2802 59.6044Z" fill="#D0D2D3"/>
    <path d="M9.83565 23.2988C7.93127 23.7975 8.36984 26.3715 8.36816 27.3286C8.36648 28.2857 9.96168 31.6788 11.0304 32.0506C13.7374 32.995 13.7391 29.4458 13.7391 29.4458V25.3152C13.7391 25.3152 11.74 22.8021 9.83565 23.2988Z" fill="#FFBA7F"/>
    <path d="M48.6453 23.3411C46.741 22.8434 44.7402 25.3525 44.7402 25.3525V29.483C44.7402 29.483 44.7358 33.1421 47.445 32.0903C48.4952 31.6808 50.1095 28.3265 50.1111 27.3689C50.1128 26.4113 50.5514 23.8388 48.6453 23.3411Z" fill="#FFBA7F"/>
    <path d="M34.0591 5.20301H24.5893C17.7156 5.19797 12.1436 11.7328 12.1385 19.7965L12.1357 30.9046C12.1318 38.9683 21.4773 44.6211 24.5753 45.5092C27.8379 46.4436 31.0306 46.3106 34.0457 45.5112C37.3038 44.6473 46.4925 38.9784 46.4975 30.9162L46.5003 19.8065C46.5026 11.7434 40.9322 5.20452 34.0591 5.20301Z" fill="#FFBA7F"/>
    <path d="M12.1357 26.1121C13.4094 25.1898 16.5797 9.65942 16.7421 8.83936L11.3146 10.3964C11.3146 10.3964 11.0278 26.9161 12.1357 26.1121Z" fill="#3B2314"/>
    <path d="M42.4507 9.81812C42.4507 9.81812 45.6652 25.6946 46.6638 26.4501C47.6625 27.2057 47.4161 12.2526 47.4161 12.2526L42.4507 9.81812Z" fill="#3B2314"/>
    <path d="M21.6564 25.0321C21.253 25.0316 20.8585 25.1387 20.5228 25.3399C20.1871 25.541 19.9253 25.8272 19.7705 26.1622C19.6156 26.4972 19.5747 26.866 19.653 27.2219C19.7312 27.5778 19.9251 27.9048 20.21 28.1616C20.4949 28.4184 20.8581 28.5935 21.2537 28.6646C21.6493 28.7358 22.0594 28.6998 22.4322 28.5613C22.8051 28.4228 23.1239 28.188 23.3483 27.8865C23.5727 27.585 23.6927 27.2305 23.693 26.8677C23.6933 26.3815 23.479 25.915 23.0971 25.5709C22.7152 25.2267 22.1971 25.0329 21.6564 25.0321Z" fill="#221F1F"/>
    <path d="M37.1915 25.0351C36.788 25.0348 36.3935 25.1421 36.0578 25.3435C35.7221 25.5449 35.4604 25.8313 35.3057 26.1664C35.151 26.5016 35.1104 26.8705 35.1889 27.2265C35.2673 27.5824 35.4614 27.9095 35.7466 28.1662C36.0318 28.4229 36.3952 28.5978 36.7909 28.6688C37.1866 28.7398 37.5968 28.7036 37.9697 28.5649C38.3426 28.4261 38.6613 28.1911 38.8856 27.8894C39.1099 27.5878 39.2297 27.2331 39.2298 26.8702C39.2296 26.3839 39.0149 25.9175 38.6327 25.5734C38.2506 25.2294 37.7322 25.0358 37.1915 25.0351Z" fill="#221F1F"/>
    <path d="M42.3697 22.0007C39.9959 20.5716 35.4612 21.0688 34.7695 21.1318C34.1668 21.1842 32.9278 21.6698 32.9906 22.2143C33.0533 22.7588 35.175 23.1598 35.7799 23.1054C38.0848 22.9004 40.2177 22.7024 43.4658 23.3769C44.0584 23.4998 42.8749 22.3055 42.3697 22.0007Z" fill="#3B2314"/>
    <path d="M24.3793 21.2144C23.6886 21.1565 19.1562 20.6528 16.7785 22.0819C16.2744 22.3841 15.0898 23.593 15.683 23.4565C18.9915 22.7009 21.064 22.9835 23.3671 23.1885C23.9721 23.244 26.1005 22.8455 26.1615 22.301C26.2226 21.7565 24.9853 21.2704 24.3793 21.2144Z" fill="#3B2314"/>
    <path d="M23.1528 36.6712C24.1459 38.5229 25.6072 41.5433 30.0366 41.5377C34.6799 41.5307 37.555 35.157 37.555 35.157C31.6985 37.651 28.3591 37.9492 23.1528 36.6712Z" fill="#D15C58"/>
    <path d="M24.3203 36.9351C24.6911 38.0302 26.4022 38.4806 29.8615 38.2599C34.4415 37.9642 35.4626 36.9502 36.0289 35.7781C32.3355 37.3003 27.2956 37.5159 24.3203 36.9351Z" fill="white"/>
    <path d="M29.9702 39.6628C29.9702 39.6628 29.1042 39.0447 28.0798 39.0447C27.0553 39.0447 25.1274 39.622 25.1274 39.622C26.013 40.7201 27.6339 41.5135 29.9046 41.5231C32.7769 41.5367 34.5244 39.4492 34.5244 39.4492C34.5244 39.4492 32.7321 39.0558 31.4853 39.0463C30.6899 39.0387 29.9702 39.6628 29.9702 39.6628Z" fill="#F88976"/>
    <path d="M32.0382 32.8489C30.2644 34.1797 27.7495 33.7757 27.0112 32.8489C27.0112 32.8489 27.75 35.2391 29.5245 35.166C31.2989 35.093 33.8116 31.519 32.0382 32.8489Z" fill="#F69D5E"/>
    <path d="M34.1668 0.802436C26.2989 -0.832659 21.9339 1.90358 21.9339 1.90358C21.9339 1.90358 20.7801 1.07042 21.6707 0C19.489 0.268486 18.8931 2.28944 18.198 3.83638C16.0169 3.21125 14.2649 4.04391 14.2649 4.04391C14.2649 4.04391 16.0169 5.26192 14.1327 6.65976C8.84355 10.5858 11.3562 15.1622 11.3562 15.1622C11.3562 15.1622 13.3043 19.5214 14.2318 18.6409C17.7045 15.34 20.4312 13.6006 21.0271 11.1031C21.0271 11.1031 24.7166 15.4019 29.6881 16.4104C33.7865 17.2436 38.8611 17.9578 41.0102 17.569C39.1579 15.9031 38.6298 12.7513 38.6298 12.7513C38.6298 12.7513 44.5188 22.4551 47.3569 15.2488C50.368 7.6113 39.7954 1.9731 34.1668 0.802436Z" fill="#3B2314"/>
    <path d="M26.6646 25.0678C26.6646 25.0678 26.6646 29.1505 24.4902 30.1399C22.7572 30.9287 17.8983 30.8481 16.5685 29.7324C15.2388 28.6166 14.6748 24.6825 14.6748 24.6825" stroke="#221F1F" stroke-width="0.532661" stroke-miterlimit="10"/>
    <path d="M14.2744 24.9807C14.2744 24.9807 22.3921 23.4877 27.0651 25.1318" stroke="#221F1F" stroke-width="1.1508" stroke-miterlimit="10" stroke-linecap="round"/>
    <path d="M15.0361 25.49L10.7607 22.8605" stroke="#221F1F" stroke-width="1.04075" stroke-miterlimit="10"/>
    <path d="M32.2065 25.0678C32.2065 25.0678 32.2065 29.1667 34.391 30.159C36.1307 30.9499 41.0076 30.8698 42.3446 29.7495C43.6816 28.6292 44.249 24.6825 44.249 24.6825" stroke="#221F1F" stroke-width="0.532661" stroke-miterlimit="10"/>
    <path d="M31.8081 25.1323C36.8491 23.6211 44.6481 24.9812 44.6481 24.9812" stroke="#221F1F" stroke-width="1.15561" stroke-miterlimit="10" stroke-linecap="round"/>
    <path d="M43.8809 25.49L48.1607 22.8605" stroke="#221F1F" stroke-width="1.04075" stroke-miterlimit="10"/>
    <path d="M27.0649 25.825C27.0649 25.825 28.5257 25.1555 29.5334 25.1555C30.7516 25.1555 31.808 25.7071 31.808 25.7071" stroke="#221F1F" stroke-width="0.961675" stroke-miterlimit="10" stroke-linecap="square"/>
  </g>
  <defs>
    <clipPath id="clip0_136_20209">
      <rect width="59" height="107" fill="white"/>
    </clipPath>
  </defs>
</svg>