<svg xmlns="http://www.w3.org/2000/svg" width="64" height="64" viewBox="0 0 64 64" fill="none">
  <g filter="url(#filter0_d_167_12394)">
    <rect x="8" y="4" width="48" height="48" rx="10" fill="url(#paint0_linear_167_12394)"/>
  </g>
  <path fill-rule="evenodd" clip-rule="evenodd" d="M37.1383 16H27.2719C23.2622 16 20 19.2622 20 23.2719V33.1383C20 37.1481 23.2622 40.4103 27.2719 40.4103H37.1383C41.1481 40.4103 44.4103 37.1481 44.4103 33.1383V23.2719C44.4102 19.2622 41.148 16 37.1383 16ZM41.9545 33.1383C41.9545 35.7983 39.7981 37.9546 37.1382 37.9546H27.2718C24.6119 37.9546 22.4556 35.7983 22.4556 33.1383V23.272C22.4556 20.612 24.6119 18.4557 27.2718 18.4557H37.1382C39.7981 18.4557 41.9545 20.612 41.9545 23.272V33.1383ZM25.8916 28.2051C25.8916 24.724 28.7238 21.8918 32.205 21.8918C35.6862 21.8918 38.5183 24.7239 38.5183 28.2051C38.5183 31.6863 35.6862 34.5185 32.205 34.5185C28.7238 34.5185 25.8916 31.6863 25.8916 28.2051ZM32.2053 32.0628C30.0748 32.0628 28.3477 30.3357 28.3477 28.2051C28.3477 26.0746 30.0748 24.3475 32.2053 24.3475C34.3359 24.3475 36.063 26.0746 36.063 28.2051C36.063 30.3357 34.3359 32.0628 32.2053 32.0628ZM38.5309 23.452C39.3664 23.452 40.0437 22.7747 40.0437 21.9392C40.0437 21.1037 39.3664 20.4264 38.5309 20.4264C37.6954 20.4264 37.0181 21.1037 37.0181 21.9392C37.0181 22.7747 37.6954 23.452 38.5309 23.452Z" fill="white"/>
  <defs>
    <filter id="filter0_d_167_12394" x="0" y="0" width="64" height="64" filterUnits="userSpaceOnUse" color-interpolation-filters="sRGB">
      <feFlood flood-opacity="0" result="BackgroundImageFix"/>
      <feColorMatrix in="SourceAlpha" type="matrix" values="0 0 0 0 0 0 0 0 0 0 0 0 0 0 0 0 0 0 127 0" result="hardAlpha"/>
      <feOffset dy="4"/>
      <feGaussianBlur stdDeviation="4"/>
      <feColorMatrix type="matrix" values="0 0 0 0 0 0 0 0 0 0 0 0 0 0 0 0 0 0 0.1 0"/>
      <feBlend mode="normal" in2="BackgroundImageFix" result="effect1_dropShadow_167_12394"/>
      <feBlend mode="normal" in="SourceGraphic" in2="effect1_dropShadow_167_12394" result="shape"/>
    </filter>
    <linearGradient id="paint0_linear_167_12394" x1="8.16037" y1="3.91982" x2="8" y2="51.9198" gradientUnits="userSpaceOnUse">
      <stop stop-color="#7024C4"/>
      <stop offset="0.415461" stop-color="#C21975"/>
      <stop offset="0.702206" stop-color="#C74C4D"/>
      <stop offset="1" stop-color="#E09B3D"/>
    </linearGradient>
  </defs>
</svg>