<svg xmlns="http://www.w3.org/2000/svg" width="48" height="48" viewBox="0 0 48 48" fill="none">
  <rect width="48" height="48" rx="10" fill="#2AA3EF"/>
  <path fill-rule="evenodd" clip-rule="evenodd" d="M35.9744 17.2095C35.1296 17.5842 34.22 17.8375 33.2671 17.9522C34.2403 17.3682 34.9877 16.4454 35.3391 15.3454C34.4281 15.8854 33.4199 16.2774 32.3453 16.4881C31.4857 15.572 30.2612 15 28.9055 15C26.3024 15 24.1912 17.1095 24.1912 19.7123C24.1912 20.083 24.2344 20.4417 24.3142 20.7871C20.3973 20.5911 16.925 18.7136 14.6003 15.8627C14.1935 16.5588 13.9623 17.3682 13.9623 18.2322C13.9623 19.867 14.7949 21.3098 16.0587 22.1538C15.2855 22.1298 14.5584 21.9178 13.9245 21.5645C13.9245 21.5845 13.9245 21.6045 13.9245 21.6245C13.9245 23.9073 15.5478 25.8114 17.7049 26.2448C17.3089 26.3528 16.8939 26.4101 16.4628 26.4101C16.16 26.4101 15.864 26.3808 15.5761 26.3248C16.1762 28.1969 17.9171 29.5597 19.9796 29.5984C18.3658 30.8611 16.333 31.6145 14.1245 31.6145C13.7447 31.6145 13.369 31.5932 13 31.5492C15.0855 32.8866 17.563 33.6667 20.2256 33.6667C28.8947 33.6667 33.6361 26.4862 33.6361 20.259C33.6361 20.0537 33.6307 19.8523 33.6226 19.6497C34.543 18.9856 35.3432 18.1549 35.9744 17.2108V17.2095Z" fill="white"/>
</svg>