<svg xmlns="http://www.w3.org/2000/svg" width="24" height="24" viewBox="0 0 24 24" fill="none">
  <g clip-path="url(#clip0_136_20326)">
    <path fill-rule="evenodd" clip-rule="evenodd" d="M11.9863 1.69214L15.709 0L17.75 3.65124L21.709 4.58355L21.3184 8.79952L24 11.999L21.3281 15.1697L21.7188 19.4164L17.7734 20.3303L15.709 24L12.0137 22.3058L8.29102 24L6.25 20.3467L2.29102 19.4164L2.68164 15.1984L0 11.999L2.67188 8.83032L2.29102 4.58355L6.22656 3.66972L8.29102 0L11.9863 1.69214ZM7.3125 13.2558C6.12695 11.9148 7.94727 9.91666 9.26562 11.1817C9.73047 11.6273 10.4062 12.2783 10.875 12.7198L14.4883 8.04586C15.7461 6.68024 17.7324 8.68657 16.4902 10.0625L11.9531 15.7549C11.7048 16.0313 11.364 16.1952 11.0027 16.212C10.6415 16.2289 10.2882 16.0974 10.0176 15.8453C9.24805 15.0752 8.11914 13.9642 7.3125 13.2558Z" fill="#845EC2"/>
  </g>
  <defs>
    <clipPath id="clip0_136_20326">
      <rect width="24" height="24" fill="white"/>
    </clipPath>
  </defs>
</svg>