<svg xmlns="http://www.w3.org/2000/svg" width="48" height="48" viewBox="0 0 48 48" fill="none">
  <rect width="48" height="48" rx="10" fill="#F52929"/>
  <path fill-rule="evenodd" clip-rule="evenodd" d="M35.5538 15.5077C36.3114 16.3757 36.5788 18.3403 36.5788 18.3403C36.5788 18.3403 36.8462 20.6704 36.8462 23.0004V25.1478C36.8462 27.4322 36.5788 29.7622 36.5788 29.7622C36.5788 29.7622 36.3114 31.7268 35.5538 32.5949C34.6215 33.6376 33.5683 33.7301 33.0457 33.7759C33.0188 33.7783 32.9933 33.7805 32.9692 33.7828C29.3597 34.1026 23.9231 34.1026 23.9231 34.1026C23.9231 34.1026 17.1941 34.0569 15.1443 33.8285C15.0354 33.8027 14.9013 33.7834 14.7487 33.7615C14.0901 33.6666 13.0884 33.5224 12.2923 32.5949C11.5348 31.7269 11.2674 29.7623 11.2674 29.7623C11.2674 29.7623 11 27.4779 11 25.1478V23.0005C11 20.6704 11.2674 18.3403 11.2674 18.3403C11.2674 18.3403 11.4902 16.3758 12.2923 15.5077C13.2247 14.4649 14.2779 14.3725 14.8005 14.3266C14.8274 14.3243 14.8529 14.322 14.8769 14.3198C18.4864 14.0457 23.9231 14 23.9231 14C23.9231 14 29.3597 14.0457 32.9692 14.3198C33.0064 14.3233 33.0473 14.3265 33.0913 14.3299C33.6278 14.3721 34.6479 14.4522 35.5538 15.5077ZM20.8037 29.351V19.4368L29.2705 24.5082L20.8037 29.351Z" fill="white"/>
</svg>